<?xml version="1.0" encoding="UTF-8" standalone="no"?>
<!DOCTYPE svg PUBLIC "-//W3C//DTD SVG 1.1//EN"
 "http://www.w3.org/Graphics/SVG/1.1/DTD/svg11.dtd">
<!-- Generated by graphviz version 14.1.5 (20260411.2331)
 -->
<!-- Title: architecture_final Pages: 1 -->
<svg width="1575pt" height="1809pt"
 viewBox="0.00 0.00 1575.00 1809.00" xmlns="http://www.w3.org/2000/svg" xmlns:xlink="http://www.w3.org/1999/xlink">
<g id="graph0" class="graph" transform="scale(1 1) rotate(0) translate(144 1664.75)">
<title>architecture_final</title>
<polygon fill="white" stroke="none" points="-144,144 -144,-1664.75 1431,-1664.75 1431,144 -144,144"/>
<text xml:space="preserve" text-anchor="middle" x="643.5" y="-5.5" font-family="Sans-Serif" font-size="15.00" fill="#2d3436">architecture_final</text>
<g id="clust1" class="cluster">
<title>cluster_External Ecosystem</title>
<path fill="#e5f5fd" stroke="#aeb6be" d="M251.8,-72.75C251.8,-72.75 349.55,-72.75 349.55,-72.75 355.55,-72.75 361.55,-78.75 361.55,-84.75 361.55,-84.75 361.55,-472.75 361.55,-472.75 361.55,-478.75 355.55,-484.75 349.55,-484.75 349.55,-484.75 251.8,-484.75 251.8,-484.75 245.8,-484.75 239.8,-478.75 239.8,-472.75 239.8,-472.75 239.8,-84.75 239.8,-84.75 239.8,-78.75 245.8,-72.75 251.8,-72.75"/>
<text xml:space="preserve" text-anchor="middle" x="300.68" y="-469.35" font-family="Sans-Serif" font-size="12.00" fill="#2d3436">External Ecosystem</text>
</g>
<g id="clust2" class="cluster">
<title>cluster_GLOBAL: Edge &amp; Identity</title>
<path fill="#e5f5fd" stroke="#aeb6be" d="M518.8,-31.75C518.8,-31.75 1076.45,-31.75 1076.45,-31.75 1082.45,-31.75 1088.45,-37.75 1088.45,-43.75 1088.45,-43.75 1088.45,-431.75 1088.45,-431.75 1088.45,-437.75 1082.45,-443.75 1076.45,-443.75 1076.45,-443.75 518.8,-443.75 518.8,-443.75 512.8,-443.75 506.8,-437.75 506.8,-431.75 506.8,-431.75 506.8,-43.75 506.8,-43.75 506.8,-37.75 512.8,-31.75 518.8,-31.75"/>
<text xml:space="preserve" text-anchor="middle" x="582.3" y="-428.35" font-family="Sans-Serif" font-size="12.00" fill="#2d3436">GLOBAL: Edge &amp; Identity</text>
</g>
<g id="clust3" class="cluster">
<title>cluster_REGION: London (eu&#45;west&#45;2)</title>
<path fill="#e5f5fd" stroke="#aeb6be" d="M20,-492.75C20,-492.75 1267,-492.75 1267,-492.75 1273,-492.75 1279,-498.75 1279,-504.75 1279,-504.75 1279,-1500.75 1279,-1500.75 1279,-1506.75 1273,-1512.75 1267,-1512.75 1267,-1512.75 20,-1512.75 20,-1512.75 14,-1512.75 8,-1506.75 8,-1500.75 8,-1500.75 8,-504.75 8,-504.75 8,-498.75 14,-492.75 20,-492.75"/>
<text xml:space="preserve" text-anchor="middle" x="94.38" y="-1497.35" font-family="Sans-Serif" font-size="12.00" fill="#2d3436">REGION: London (eu&#45;west&#45;2)</text>
</g>
<g id="clust4" class="cluster">
<title>cluster_Regional Security</title>
<path fill="#ebf3e7" stroke="#aeb6be" d="M518.8,-500.75C518.8,-500.75 611.6,-500.75 611.6,-500.75 617.6,-500.75 623.6,-506.75 623.6,-512.75 623.6,-512.75 623.6,-900.75 623.6,-900.75 623.6,-906.75 617.6,-912.75 611.6,-912.75 611.6,-912.75 518.8,-912.75 518.8,-912.75 512.8,-912.75 506.8,-906.75 506.8,-900.75 506.8,-900.75 506.8,-512.75 506.8,-512.75 506.8,-506.75 512.8,-500.75 518.8,-500.75"/>
<text xml:space="preserve" text-anchor="middle" x="562.43" y="-897.35" font-family="Sans-Serif" font-size="12.00" fill="#2d3436">Regional Security</text>
</g>
<g id="clust5" class="cluster">
<title>cluster_Ingestion Plane</title>
<path fill="#ebf3e7" stroke="#aeb6be" d="M28,-701.75C28,-701.75 346.58,-701.75 346.58,-701.75 352.58,-701.75 358.58,-707.75 358.58,-713.75 358.58,-713.75 358.58,-1101.75 358.58,-1101.75 358.58,-1107.75 352.58,-1113.75 346.58,-1113.75 346.58,-1113.75 28,-1113.75 28,-1113.75 22,-1113.75 16,-1107.75 16,-1101.75 16,-1101.75 16,-713.75 16,-713.75 16,-707.75 22,-701.75 28,-701.75"/>
<text xml:space="preserve" text-anchor="middle" x="65.62" y="-1098.35" font-family="Sans-Serif" font-size="12.00" fill="#2d3436">Ingestion Plane</text>
</g>
<g id="clust6" class="cluster">
<title>cluster_Core Processing</title>
<path fill="#ebf3e7" stroke="#aeb6be" d="M518.8,-920.75C518.8,-920.75 1076.45,-920.75 1076.45,-920.75 1082.45,-920.75 1088.45,-926.75 1088.45,-932.75 1088.45,-932.75 1088.45,-1111.75 1088.45,-1111.75 1088.45,-1117.75 1082.45,-1123.75 1076.45,-1123.75 1076.45,-1123.75 518.8,-1123.75 518.8,-1123.75 512.8,-1123.75 506.8,-1117.75 506.8,-1111.75 506.8,-1111.75 506.8,-932.75 506.8,-932.75 506.8,-926.75 512.8,-920.75 518.8,-920.75"/>
<text xml:space="preserve" text-anchor="middle" x="559.43" y="-1108.35" font-family="Sans-Serif" font-size="12.00" fill="#2d3436">Core Processing</text>
</g>
<g id="clust7" class="cluster">
<title>cluster_Distribution Layer</title>
<path fill="#ebf3e7" stroke="#aeb6be" d="M253.78,-1264.75C253.78,-1264.75 847.4,-1264.75 847.4,-1264.75 853.4,-1264.75 859.4,-1270.75 859.4,-1276.75 859.4,-1276.75 859.4,-1455.75 859.4,-1455.75 859.4,-1461.75 853.4,-1467.75 847.4,-1467.75 847.4,-1467.75 253.78,-1467.75 253.78,-1467.75 247.78,-1467.75 241.78,-1461.75 241.78,-1455.75 241.78,-1455.75 241.78,-1276.75 241.78,-1276.75 241.78,-1270.75 247.78,-1264.75 253.78,-1264.75"/>
<text xml:space="preserve" text-anchor="middle" x="296.65" y="-1452.35" font-family="Sans-Serif" font-size="12.00" fill="#2d3436">Distribution Layer</text>
</g>
<g id="clust8" class="cluster">
<title>cluster_Monitoring &amp; Observability</title>
<path fill="#ebf3e7" stroke="#aeb6be" d="M983.65,-1131.75C983.65,-1131.75 1259,-1131.75 1259,-1131.75 1265,-1131.75 1271,-1137.75 1271,-1143.75 1271,-1143.75 1271,-1292.75 1271,-1292.75 1271,-1298.75 1265,-1304.75 1259,-1304.75 1259,-1304.75 983.65,-1304.75 983.65,-1304.75 977.65,-1304.75 971.65,-1298.75 971.65,-1292.75 971.65,-1292.75 971.65,-1143.75 971.65,-1143.75 971.65,-1137.75 977.65,-1131.75 983.65,-1131.75"/>
<text xml:space="preserve" text-anchor="middle" x="1049.78" y="-1289.35" font-family="Sans-Serif" font-size="12.00" fill="#2d3436">Monitoring &amp; Observability</text>
</g>
<!-- e826cfd91f704d27940d7f74f36f3d0f -->
<g id="node1" class="node">
<title>e826cfd91f704d27940d7f74f36f3d0f</title>
<image xlink:href="/Volumes/Works/Cloud/terraform/cloud/venv/lib/python3.9/site-packages/resources/generic/network/router.png" width="100.8px" height="100.8px" preserveAspectRatio="xMinYMin meet" x="249.775" y="-423.15"/>
<text xml:space="preserve" text-anchor="middle" x="300.18" y="-304.6" font-family="Sans-Serif" font-size="13.00" fill="#2d3436">IoT </text>
<text xml:space="preserve" text-anchor="middle" x="300.18" y="-291.1" font-family="Sans-Serif" font-size="13.00" fill="#2d3436">Sensors</text>
</g>
<!-- 54d38744142a4457a5ecce7e219c70c2 -->
<g id="node7" class="node">
<title>54d38744142a4457a5ecce7e219c70c2</title>
<image xlink:href="/Volumes/Works/Cloud/terraform/cloud/venv/lib/python3.9/site-packages/resources/aws/security/waf.png" width="100.8px" height="100.8px" preserveAspectRatio="xMinYMin meet" x="514.8" y="-851.15"/>
<text xml:space="preserve" text-anchor="middle" x="565.2" y="-732.6" font-family="Sans-Serif" font-size="13.00" fill="#2d3436">AWS WAF </text>
<text xml:space="preserve" text-anchor="middle" x="565.2" y="-719.1" font-family="Sans-Serif" font-size="13.00" fill="#2d3436">(Regional)</text>
</g>
<!-- e826cfd91f704d27940d7f74f36f3d0f&#45;&gt;54d38744142a4457a5ecce7e219c70c2 -->
<g id="edge6" class="edge">
<title>e826cfd91f704d27940d7f74f36f3d0f&#45;&gt;54d38744142a4457a5ecce7e219c70c2</title>
<path fill="none" stroke="darkgreen" d="M350.45,-435.05C401.79,-435.05 474,-435.05 474,-435.05 474,-435.05 474,-796.75 474,-796.75 474,-796.75 503.55,-796.75 503.55,-796.75"/>
<polygon fill="darkgreen" stroke="darkgreen" points="503.55,-800.25 513.55,-796.75 503.55,-793.25 503.55,-800.25"/>
<text xml:space="preserve" text-anchor="middle" x="434.18" y="-735.9" font-family="Sans-Serif" font-size="13.00" fill="#2d3436">1. Telemetry</text>
</g>
<!-- 57de97c7bef74677a830a55a9e996134 -->
<g id="node2" class="node">
<title>57de97c7bef74677a830a55a9e996134</title>
<image xlink:href="/Volumes/Works/Cloud/terraform/cloud/venv/lib/python3.9/site-packages/resources/generic/device/mobile.png" width="100.8px" height="100.8px" preserveAspectRatio="xMinYMin meet" x="249.775" y="-214.15"/>
<text xml:space="preserve" text-anchor="middle" x="300.18" y="-95.6" font-family="Sans-Serif" font-size="13.00" fill="#2d3436">Dashboard </text>
<text xml:space="preserve" text-anchor="middle" x="300.18" y="-82.1" font-family="Sans-Serif" font-size="13.00" fill="#2d3436">Client</text>
</g>
<!-- db57030e3cd4415d86da6c6374b25a2e -->
<g id="node3" class="node">
<title>db57030e3cd4415d86da6c6374b25a2e</title>
<image xlink:href="/Volumes/Works/Cloud/terraform/cloud/venv/lib/python3.9/site-packages/resources/aws/security/waf.png" width="100.8px" height="100.8px" preserveAspectRatio="xMinYMin meet" x="514.8" y="-382.15"/>
<text xml:space="preserve" text-anchor="middle" x="565.2" y="-263.6" font-family="Sans-Serif" font-size="13.00" fill="#2d3436">AWS WAF </text>
<text xml:space="preserve" text-anchor="middle" x="565.2" y="-250.1" font-family="Sans-Serif" font-size="13.00" fill="#2d3436">(Global)</text>
</g>
<!-- 57de97c7bef74677a830a55a9e996134&#45;&gt;db57030e3cd4415d86da6c6374b25a2e -->
<g id="edge4" class="edge">
<title>57de97c7bef74677a830a55a9e996134&#45;&gt;db57030e3cd4415d86da6c6374b25a2e</title>
<path fill="none" stroke="blue" d="M350.3,-236.3C427.07,-236.3 565,-236.3 565,-236.3 565,-236.3 565,-237.66 565,-237.66"/>
<polygon fill="blue" stroke="blue" points="561.5,-237.66 565,-247.66 568.5,-237.66 561.5,-237.66"/>
<text xml:space="preserve" text-anchor="middle" x="434.18" y="-283.9" font-family="Sans-Serif" font-size="13.00" fill="#2d3436">UI Request</text>
</g>
<!-- 7a5bfaec065940fbbb35684265434244 -->
<g id="node6" class="node">
<title>7a5bfaec065940fbbb35684265434244</title>
<image xlink:href="/Volumes/Works/Cloud/terraform/cloud/venv/lib/python3.9/site-packages/resources/aws/security/cognito.png" width="100.8px" height="100.8px" preserveAspectRatio="xMinYMin meet" x="514.8" y="-173.15"/>
<text xml:space="preserve" text-anchor="middle" x="565.2" y="-54.6" font-family="Sans-Serif" font-size="13.00" fill="#2d3436">Cognito </text>
<text xml:space="preserve" text-anchor="middle" x="565.2" y="-41.1" font-family="Sans-Serif" font-size="13.00" fill="#2d3436">User Pool</text>
</g>
<!-- 57de97c7bef74677a830a55a9e996134&#45;&gt;7a5bfaec065940fbbb35684265434244 -->
<g id="edge5" class="edge">
<title>57de97c7bef74677a830a55a9e996134&#45;&gt;7a5bfaec065940fbbb35684265434244</title>
<path fill="none" stroke="blue" stroke-dasharray="5,2" d="M350.34,-164.02C350.34,-164.02 503.73,-164.02 503.73,-164.02"/>
<polygon fill="blue" stroke="blue" points="503.73,-167.52 513.73,-164.02 503.73,-160.52 503.73,-167.52"/>
<text xml:space="preserve" text-anchor="middle" x="434.18" y="-123.9" font-family="Sans-Serif" font-size="13.00" fill="#2d3436">Auth JWT</text>
</g>
<!-- efb68d1d4f4b45a7aa6e7d7210b684cf -->
<g id="node15" class="node">
<title>efb68d1d4f4b45a7aa6e7d7210b684cf</title>
<image xlink:href="/Volumes/Works/Cloud/terraform/cloud/venv/lib/python3.9/site-packages/resources/aws/integration/appsync.png" width="100.8px" height="100.8px" preserveAspectRatio="xMinYMin meet" x="514.8" y="-1395.15"/>
<text xml:space="preserve" text-anchor="middle" x="565.2" y="-1277.5" font-family="Sans-Serif" font-size="13.00" fill="#2d3436">AWS AppSync</text>
</g>
<!-- 57de97c7bef74677a830a55a9e996134&#45;&gt;efb68d1d4f4b45a7aa6e7d7210b684cf -->
<g id="edge17" class="edge">
<title>57de97c7bef74677a830a55a9e996134&#45;&gt;efb68d1d4f4b45a7aa6e7d7210b684cf</title>
<path fill="none" stroke="blue" d="M350.39,-215.8C388,-215.8 433,-215.8 433,-215.8 433,-215.8 433,-1310.55 433,-1310.55 433,-1310.55 503.33,-1310.55 503.33,-1310.55"/>
<polygon fill="blue" stroke="blue" points="503.33,-1314.05 513.33,-1310.55 503.33,-1307.05 503.33,-1314.05"/>
<text xml:space="preserve" text-anchor="middle" x="434.18" y="-635.9" font-family="Sans-Serif" font-size="13.00" fill="#2d3436">11. Query</text>
</g>
<!-- 4a2b3d906eaf44e998d5fff1dd8b6f00 -->
<g id="node4" class="node">
<title>4a2b3d906eaf44e998d5fff1dd8b6f00</title>
<image xlink:href="/Volumes/Works/Cloud/terraform/cloud/venv/lib/python3.9/site-packages/resources/aws/network/cloudfront.png" width="100.8px" height="100.8px" preserveAspectRatio="xMinYMin meet" x="750.6" y="-382.15"/>
<text xml:space="preserve" text-anchor="middle" x="801" y="-264.5" font-family="Sans-Serif" font-size="13.00" fill="#2d3436">CloudFront</text>
</g>
<!-- db57030e3cd4415d86da6c6374b25a2e&#45;&gt;4a2b3d906eaf44e998d5fff1dd8b6f00 -->
<g id="edge1" class="edge">
<title>db57030e3cd4415d86da6c6374b25a2e&#45;&gt;4a2b3d906eaf44e998d5fff1dd8b6f00</title>
<path fill="none" stroke="#7b8894" d="M615.5,-331.75C615.5,-331.75 739.27,-331.75 739.27,-331.75"/>
<polygon fill="#7b8894" stroke="#7b8894" points="739.27,-335.25 749.27,-331.75 739.27,-328.25 739.27,-335.25"/>
</g>
<!-- ef1af3c62734478b97fdd977f8370b83 -->
<g id="node5" class="node">
<title>ef1af3c62734478b97fdd977f8370b83</title>
<image xlink:href="/Volumes/Works/Cloud/terraform/cloud/venv/lib/python3.9/site-packages/resources/aws/storage/simple-storage-service-s3.png" width="100.8px" height="100.8px" preserveAspectRatio="xMinYMin meet" x="979.65" y="-382.15"/>
<text xml:space="preserve" text-anchor="middle" x="1030.05" y="-264.5" font-family="Sans-Serif" font-size="13.00" fill="#2d3436">Frontend App OAC</text>
</g>
<!-- 4a2b3d906eaf44e998d5fff1dd8b6f00&#45;&gt;ef1af3c62734478b97fdd977f8370b83 -->
<g id="edge2" class="edge">
<title>4a2b3d906eaf44e998d5fff1dd8b6f00&#45;&gt;ef1af3c62734478b97fdd977f8370b83</title>
<path fill="none" stroke="#7b8894" d="M851.27,-331.75C851.27,-331.75 968.39,-331.75 968.39,-331.75"/>
<polygon fill="#7b8894" stroke="#7b8894" points="968.39,-335.25 978.39,-331.75 968.39,-328.25 968.39,-335.25"/>
</g>
<!-- 7a5bfaec065940fbbb35684265434244&#45;&gt;57de97c7bef74677a830a55a9e996134 -->
<g id="edge3" class="edge">
<title>7a5bfaec065940fbbb35684265434244&#45;&gt;57de97c7bef74677a830a55a9e996134</title>
<path fill="none" stroke="#7b8894" stroke-dasharray="5,2" d="M515.04,-122.48C515.04,-122.48 361.64,-122.48 361.64,-122.48"/>
<polygon fill="#7b8894" stroke="#7b8894" points="361.64,-118.98 351.64,-122.48 361.64,-125.98 361.64,-118.98"/>
</g>
<!-- 511edc804c134475af73876da1d2e29b -->
<g id="node9" class="node">
<title>511edc804c134475af73876da1d2e29b</title>
<image xlink:href="/Volumes/Works/Cloud/terraform/cloud/venv/lib/python3.9/site-packages/resources/aws/network/api-gateway.png" width="100.8px" height="100.8px" preserveAspectRatio="xMinYMin meet" x="24" y="-1052.15"/>
<text xml:space="preserve" text-anchor="middle" x="74.4" y="-933.6" font-family="Sans-Serif" font-size="13.00" fill="#2d3436">API Gateway </text>
<text xml:space="preserve" text-anchor="middle" x="74.4" y="-920.1" font-family="Sans-Serif" font-size="13.00" fill="#2d3436">v2</text>
</g>
<!-- 54d38744142a4457a5ecce7e219c70c2&#45;&gt;511edc804c134475af73876da1d2e29b -->
<g id="edge7" class="edge">
<title>54d38744142a4457a5ecce7e219c70c2&#45;&gt;511edc804c134475af73876da1d2e29b</title>
<path fill="none" stroke="darkgreen" d="M514.9,-879.55C392.86,-879.55 91,-879.55 91,-879.55 91,-879.55 91,-907.71 91,-907.71"/>
<polygon fill="darkgreen" stroke="darkgreen" points="87.5,-907.71 91,-917.71 94.5,-907.71 87.5,-907.71"/>
<text xml:space="preserve" text-anchor="middle" x="300.18" y="-1171.9" font-family="Sans-Serif" font-size="13.00" fill="#2d3436">2. Validated</text>
</g>
<!-- d10e14b14fb643c1a2a52b938314291c -->
<g id="node8" class="node">
<title>d10e14b14fb643c1a2a52b938314291c</title>
<image xlink:href="/Volumes/Works/Cloud/terraform/cloud/venv/lib/python3.9/site-packages/resources/aws/management/systems-manager-parameter-store.png" width="100.8px" height="100.8px" preserveAspectRatio="xMinYMin meet" x="514.8" y="-642.15"/>
<text xml:space="preserve" text-anchor="middle" x="565.2" y="-523.6" font-family="Sans-Serif" font-size="13.00" fill="#2d3436">SecureString </text>
<text xml:space="preserve" text-anchor="middle" x="565.2" y="-510.1" font-family="Sans-Serif" font-size="13.00" fill="#2d3436">(x&#45;api&#45;token)</text>
</g>
<!-- ba334af243a94d118a9e428790ff8caf -->
<g id="node10" class="node">
<title>ba334af243a94d118a9e428790ff8caf</title>
<image xlink:href="/Volumes/Works/Cloud/terraform/cloud/venv/lib/python3.9/site-packages/resources/aws/compute/lambda.png" width="100.8px" height="100.8px" preserveAspectRatio="xMinYMin meet" x="249.775" y="-843.15"/>
<text xml:space="preserve" text-anchor="middle" x="300.18" y="-724.6" font-family="Sans-Serif" font-size="13.00" fill="#2d3436">Auth </text>
<text xml:space="preserve" text-anchor="middle" x="300.18" y="-711.1" font-family="Sans-Serif" font-size="13.00" fill="#2d3436">Lambda</text>
</g>
<!-- 511edc804c134475af73876da1d2e29b&#45;&gt;ba334af243a94d118a9e428790ff8caf -->
<g id="edge8" class="edge">
<title>511edc804c134475af73876da1d2e29b&#45;&gt;ba334af243a94d118a9e428790ff8caf</title>
<path fill="none" stroke="#7b8894" stroke-dasharray="5,2" d="M58,-919.15C58,-860.73 58,-792.75 58,-792.75 58,-792.75 179.06,-792.75 250,-792.75"/>
<text xml:space="preserve" text-anchor="middle" x="186.3" y="-867.9" font-family="Sans-Serif" font-size="13.00" fill="#2d3436">3. Auth</text>
</g>
<!-- 9c7930a405874489bbebf82526258187 -->
<g id="node11" class="node">
<title>9c7930a405874489bbebf82526258187</title>
<image xlink:href="/Volumes/Works/Cloud/terraform/cloud/venv/lib/python3.9/site-packages/resources/aws/integration/simple-queue-service-sqs.png" width="100.8px" height="100.8px" preserveAspectRatio="xMinYMin meet" x="249.775" y="-1052.15"/>
<text xml:space="preserve" text-anchor="middle" x="300.18" y="-933.6" font-family="Sans-Serif" font-size="13.00" fill="#2d3436">SQS Ingest </text>
<text xml:space="preserve" text-anchor="middle" x="300.18" y="-920.1" font-family="Sans-Serif" font-size="13.00" fill="#2d3436">Buffer</text>
</g>
<!-- 511edc804c134475af73876da1d2e29b&#45;&gt;9c7930a405874489bbebf82526258187 -->
<g id="edge10" class="edge">
<title>511edc804c134475af73876da1d2e29b&#45;&gt;9c7930a405874489bbebf82526258187</title>
<path fill="none" stroke="darkgreen" d="M124.79,-1001.75C124.79,-1001.75 238.43,-1001.75 238.43,-1001.75"/>
<polygon fill="darkgreen" stroke="darkgreen" points="238.43,-1005.25 248.43,-1001.75 238.43,-998.25 238.43,-1005.25"/>
<text xml:space="preserve" text-anchor="middle" x="186.3" y="-1002.9" font-family="Sans-Serif" font-size="13.00" fill="#2d3436">4. Buffering</text>
</g>
<!-- 5676b9b5b7354b079975ff86945d522f -->
<g id="node18" class="node">
<title>5676b9b5b7354b079975ff86945d522f</title>
<image xlink:href="/Volumes/Works/Cloud/terraform/cloud/venv/lib/python3.9/site-packages/resources/aws/management/cloudwatch.png" width="100.8px" height="100.8px" preserveAspectRatio="xMinYMin meet" x="979.65" y="-1258.15"/>
<text xml:space="preserve" text-anchor="middle" x="1030.05" y="-1140.5" font-family="Sans-Serif" font-size="13.00" fill="#2d3436">CloudWatch</text>
</g>
<!-- 511edc804c134475af73876da1d2e29b&#45;&gt;5676b9b5b7354b079975ff86945d522f -->
<g id="edge20" class="edge">
<title>511edc804c134475af73876da1d2e29b&#45;&gt;5676b9b5b7354b079975ff86945d522f</title>
<path fill="none" stroke="red" stroke-dasharray="1,5" d="M74,-1084.54C74,-1149.29 74,-1228.42 74,-1228.42 74,-1228.42 782.48,-1228.42 979.66,-1228.42"/>
</g>
<!-- ba334af243a94d118a9e428790ff8caf&#45;&gt;d10e14b14fb643c1a2a52b938314291c -->
<g id="edge9" class="edge">
<title>ba334af243a94d118a9e428790ff8caf&#45;&gt;d10e14b14fb643c1a2a52b938314291c</title>
<path fill="none" stroke="#7b8894" d="M350.3,-713.95C427.07,-713.95 565,-713.95 565,-713.95 565,-713.95 565,-685.79 565,-685.79"/>
<polygon fill="#7b8894" stroke="#7b8894" points="568.5,-685.79 565,-675.79 561.5,-685.79 568.5,-685.79"/>
</g>
<!-- 9ea52ae4ee7849039e5835df5867a004 -->
<g id="node12" class="node">
<title>9ea52ae4ee7849039e5835df5867a004</title>
<image xlink:href="/Volumes/Works/Cloud/terraform/cloud/venv/lib/python3.9/site-packages/resources/aws/compute/lambda.png" width="100.8px" height="100.8px" preserveAspectRatio="xMinYMin meet" x="514.8" y="-1062.15"/>
<text xml:space="preserve" text-anchor="middle" x="565.2" y="-943.6" font-family="Sans-Serif" font-size="13.00" fill="#2d3436">Ingest </text>
<text xml:space="preserve" text-anchor="middle" x="565.2" y="-930.1" font-family="Sans-Serif" font-size="13.00" fill="#2d3436">Lambda</text>
</g>
<!-- 9c7930a405874489bbebf82526258187&#45;&gt;9ea52ae4ee7849039e5835df5867a004 -->
<g id="edge11" class="edge">
<title>9c7930a405874489bbebf82526258187&#45;&gt;9ea52ae4ee7849039e5835df5867a004</title>
<path fill="none" stroke="darkgreen" d="M350.34,-1006.75C350.34,-1006.75 503.73,-1006.75 503.73,-1006.75"/>
<polygon fill="darkgreen" stroke="darkgreen" points="503.73,-1010.25 513.73,-1006.75 503.73,-1003.25 503.73,-1010.25"/>
<text xml:space="preserve" text-anchor="middle" x="434.18" y="-1007.9" font-family="Sans-Serif" font-size="13.00" fill="#2d3436">5. Batch Invoke</text>
</g>
<!-- 9c7930a405874489bbebf82526258187&#45;&gt;5676b9b5b7354b079975ff86945d522f -->
<g id="edge21" class="edge">
<title>9c7930a405874489bbebf82526258187&#45;&gt;5676b9b5b7354b079975ff86945d522f</title>
<path fill="none" stroke="red" stroke-dasharray="1,5" d="M317,-1084.3C317,-1141.03 317,-1206.15 317,-1206.15 317,-1206.15 817.6,-1206.15 979.91,-1206.15"/>
</g>
<!-- ec767f7dd57644ad95a1f537b8b942aa -->
<g id="node13" class="node">
<title>ec767f7dd57644ad95a1f537b8b942aa</title>
<image xlink:href="/Volumes/Works/Cloud/terraform/cloud/venv/lib/python3.9/site-packages/resources/aws/database/dynamodb.png" width="100.8px" height="100.8px" preserveAspectRatio="xMinYMin meet" x="750.6" y="-1062.15"/>
<text xml:space="preserve" text-anchor="middle" x="801" y="-943.6" font-family="Sans-Serif" font-size="13.00" fill="#2d3436">DynamoDB </text>
<text xml:space="preserve" text-anchor="middle" x="801" y="-930.1" font-family="Sans-Serif" font-size="13.00" fill="#2d3436">Clusters</text>
</g>
<!-- 9ea52ae4ee7849039e5835df5867a004&#45;&gt;ec767f7dd57644ad95a1f537b8b942aa -->
<g id="edge12" class="edge">
<title>9ea52ae4ee7849039e5835df5867a004&#45;&gt;ec767f7dd57644ad95a1f537b8b942aa</title>
<path fill="none" stroke="darkgreen" d="M615.5,-1011.75C615.5,-1011.75 739.27,-1011.75 739.27,-1011.75"/>
<polygon fill="darkgreen" stroke="darkgreen" points="739.27,-1015.25 749.27,-1011.75 739.27,-1008.25 739.27,-1015.25"/>
<text xml:space="preserve" text-anchor="middle" x="683.1" y="-1012.9" font-family="Sans-Serif" font-size="13.00" fill="#2d3436">6. Write State</text>
</g>
<!-- 9ea52ae4ee7849039e5835df5867a004&#45;&gt;5676b9b5b7354b079975ff86945d522f -->
<g id="edge23" class="edge">
<title>9ea52ae4ee7849039e5835df5867a004&#45;&gt;5676b9b5b7354b079975ff86945d522f</title>
<path fill="none" stroke="red" stroke-dasharray="1,5" d="M565,-1094.54C565,-1138.64 565,-1183.88 565,-1183.88 565,-1183.88 859.59,-1183.88 979.84,-1183.88"/>
</g>
<!-- 00e8128925234706887448804d616ba6 -->
<g id="node14" class="node">
<title>00e8128925234706887448804d616ba6</title>
<image xlink:href="/Volumes/Works/Cloud/terraform/cloud/venv/lib/python3.9/site-packages/resources/aws/database/dynamodb.png" width="100.8px" height="100.8px" preserveAspectRatio="xMinYMin meet" x="979.65" y="-1062.15"/>
<text xml:space="preserve" text-anchor="middle" x="1030.05" y="-943.6" font-family="Sans-Serif" font-size="13.00" fill="#2d3436">DynamoDB </text>
<text xml:space="preserve" text-anchor="middle" x="1030.05" y="-930.1" font-family="Sans-Serif" font-size="13.00" fill="#2d3436">Streams</text>
</g>
<!-- ec767f7dd57644ad95a1f537b8b942aa&#45;&gt;00e8128925234706887448804d616ba6 -->
<g id="edge13" class="edge">
<title>ec767f7dd57644ad95a1f537b8b942aa&#45;&gt;00e8128925234706887448804d616ba6</title>
<path fill="none" stroke="purple" d="M851.27,-1011.75C851.27,-1011.75 968.39,-1011.75 968.39,-1011.75"/>
<polygon fill="purple" stroke="purple" points="968.39,-1015.25 978.39,-1011.75 968.39,-1008.25 968.39,-1015.25"/>
<text xml:space="preserve" text-anchor="middle" x="915.53" y="-1012.9" font-family="Sans-Serif" font-size="13.00" fill="#2d3436">7. CDC feed</text>
</g>
<!-- ec767f7dd57644ad95a1f537b8b942aa&#45;&gt;5676b9b5b7354b079975ff86945d522f -->
<g id="edge22" class="edge">
<title>ec767f7dd57644ad95a1f537b8b942aa&#45;&gt;5676b9b5b7354b079975ff86945d522f</title>
<path fill="none" stroke="red" stroke-dasharray="1,5" d="M801,-1094.14C801,-1128.96 801,-1161.62 801,-1161.62 801,-1161.62 912.36,-1161.62 979.78,-1161.62"/>
</g>
<!-- ff3bcb128b0745789b2cc5234884ea58 -->
<g id="node16" class="node">
<title>ff3bcb128b0745789b2cc5234884ea58</title>
<image xlink:href="/Volumes/Works/Cloud/terraform/cloud/venv/lib/python3.9/site-packages/resources/aws/compute/lambda.png" width="100.8px" height="100.8px" preserveAspectRatio="xMinYMin meet" x="249.775" y="-1406.15"/>
<text xml:space="preserve" text-anchor="middle" x="300.18" y="-1287.6" font-family="Sans-Serif" font-size="13.00" fill="#2d3436">Notifier </text>
<text xml:space="preserve" text-anchor="middle" x="300.18" y="-1274.1" font-family="Sans-Serif" font-size="13.00" fill="#2d3436">Lambda</text>
</g>
<!-- 00e8128925234706887448804d616ba6&#45;&gt;ff3bcb128b0745789b2cc5234884ea58 -->
<g id="edge14" class="edge">
<title>00e8128925234706887448804d616ba6&#45;&gt;ff3bcb128b0745789b2cc5234884ea58</title>
<path fill="none" stroke="purple" d="M1030,-1094.38C1030,-1107.56 1030,-1116.95 1030,-1116.95 1030,-1116.95 283,-1116.95 283,-1116.95 283,-1116.95 283,-1261.72 283,-1261.72"/>
<polygon fill="purple" stroke="purple" points="279.5,-1261.72 283,-1271.72 286.5,-1261.72 279.5,-1261.72"/>
<text xml:space="preserve" text-anchor="middle" x="683.1" y="-1471.9" font-family="Sans-Serif" font-size="13.00" fill="#2d3436">8. Trigger</text>
</g>
<!-- efb68d1d4f4b45a7aa6e7d7210b684cf&#45;&gt;57de97c7bef74677a830a55a9e996134 -->
<g id="edge16" class="edge">
<title>efb68d1d4f4b45a7aa6e7d7210b684cf&#45;&gt;57de97c7bef74677a830a55a9e996134</title>
<path fill="none" stroke="purple" d="M515.1,-1344.75C463.95,-1344.75 392,-1344.75 392,-1344.75 392,-1344.75 392,-226.05 392,-226.05 392,-226.05 361.9,-226.05 361.9,-226.05"/>
<polygon fill="purple" stroke="purple" points="361.9,-222.55 351.9,-226.05 361.9,-229.55 361.9,-222.55"/>
<text xml:space="preserve" text-anchor="middle" x="434.18" y="-497.9" font-family="Sans-Serif" font-size="13.00" fill="#2d3436">10. Real&#45;time Pub</text>
</g>
<!-- ed377a86b8584ec29bfddbc83baa3a61 -->
<g id="node17" class="node">
<title>ed377a86b8584ec29bfddbc83baa3a61</title>
<image xlink:href="/Volumes/Works/Cloud/terraform/cloud/venv/lib/python3.9/site-packages/resources/aws/compute/lambda.png" width="100.8px" height="100.8px" preserveAspectRatio="xMinYMin meet" x="750.6" y="-1406.15"/>
<text xml:space="preserve" text-anchor="middle" x="801" y="-1287.6" font-family="Sans-Serif" font-size="13.00" fill="#2d3436">Read </text>
<text xml:space="preserve" text-anchor="middle" x="801" y="-1274.1" font-family="Sans-Serif" font-size="13.00" fill="#2d3436">Lambda</text>
</g>
<!-- efb68d1d4f4b45a7aa6e7d7210b684cf&#45;&gt;ed377a86b8584ec29bfddbc83baa3a61 -->
<g id="edge18" class="edge">
<title>efb68d1d4f4b45a7aa6e7d7210b684cf&#45;&gt;ed377a86b8584ec29bfddbc83baa3a61</title>
<path fill="none" stroke="blue" d="M615.5,-1344.75C615.5,-1344.75 739.27,-1344.75 739.27,-1344.75"/>
<polygon fill="blue" stroke="blue" points="739.27,-1348.25 749.27,-1344.75 739.27,-1341.25 739.27,-1348.25"/>
<text xml:space="preserve" text-anchor="middle" x="683.1" y="-1348.9" font-family="Sans-Serif" font-size="13.00" fill="#2d3436">12. Invoke</text>
</g>
<!-- ff3bcb128b0745789b2cc5234884ea58&#45;&gt;efb68d1d4f4b45a7aa6e7d7210b684cf -->
<g id="edge15" class="edge">
<title>ff3bcb128b0745789b2cc5234884ea58&#45;&gt;efb68d1d4f4b45a7aa6e7d7210b684cf</title>
<path fill="none" stroke="purple" d="M350.34,-1378.95C350.34,-1378.95 503.73,-1378.95 503.73,-1378.95"/>
<polygon fill="purple" stroke="purple" points="503.73,-1382.45 513.73,-1378.95 503.73,-1375.45 503.73,-1382.45"/>
<text xml:space="preserve" text-anchor="middle" x="434.18" y="-1349.9" font-family="Sans-Serif" font-size="13.00" fill="#2d3436">9. Mutate</text>
</g>
<!-- ed377a86b8584ec29bfddbc83baa3a61&#45;&gt;ec767f7dd57644ad95a1f537b8b942aa -->
<g id="edge19" class="edge">
<title>ed377a86b8584ec29bfddbc83baa3a61&#45;&gt;ec767f7dd57644ad95a1f537b8b942aa</title>
<path fill="none" stroke="blue" d="M776,-1273.35C776,-1273.35 776,-1105.88 776,-1105.88"/>
<polygon fill="blue" stroke="blue" points="779.5,-1105.88 776,-1095.88 772.5,-1105.88 779.5,-1105.88"/>
</g>
<!-- ed377a86b8584ec29bfddbc83baa3a61&#45;&gt;5676b9b5b7354b079975ff86945d522f -->
<g id="edge24" class="edge">
<title>ed377a86b8584ec29bfddbc83baa3a61&#45;&gt;5676b9b5b7354b079975ff86945d522f</title>
<path fill="none" stroke="red" stroke-dasharray="1,5" d="M826,-1272.97C826,-1259.94 826,-1250.68 826,-1250.68 826,-1250.68 919.46,-1250.68 979.87,-1250.68"/>
</g>
<!-- aded5cb4bc81438d966cf670504be768 -->
<g id="node19" class="node">
<title>aded5cb4bc81438d966cf670504be768</title>
<image xlink:href="/Volumes/Works/Cloud/terraform/cloud/venv/lib/python3.9/site-packages/resources/aws/integration/simple-notification-service-sns.png" width="100.8px" height="100.8px" preserveAspectRatio="xMinYMin meet" x="1162.2" y="-1258.15"/>
<text xml:space="preserve" text-anchor="middle" x="1212.6" y="-1140.5" font-family="Sans-Serif" font-size="13.00" fill="#2d3436">SNS (Alerts)</text>
</g>
<!-- 5676b9b5b7354b079975ff86945d522f&#45;&gt;aded5cb4bc81438d966cf670504be768 -->
<g id="edge25" class="edge">
<title>5676b9b5b7354b079975ff86945d522f&#45;&gt;aded5cb4bc81438d966cf670504be768</title>
<path fill="none" stroke="red" d="M1080.42,-1207.75C1080.42,-1207.75 1150.88,-1207.75 1150.88,-1207.75"/>
<polygon fill="red" stroke="red" points="1150.89,-1211.25 1160.88,-1207.75 1150.88,-1204.25 1150.89,-1211.25"/>
<text xml:space="preserve" text-anchor="middle" x="1121.33" y="-1208.9" font-family="Sans-Serif" font-size="13.00" fill="#2d3436">Alert</text>
</g>
</g>
</svg>
